**ABCDEFGHIJKLMNOPQRSTUVWXYZabcdefghijklmnopqrstuvwxyz**************************
**PARASOLID !"#$%&'()*+,-./:;<=>?@[\]^_`{|}~0123456789**************************
**PART1;
MC=x86;
MC_MODEL=x86 Family 15 Model 2 Stepping 9, GenuineIntel;
MC_ID=unknown;
OS=Windows_NT;
OS_RELEASE=unknown;
FRU=Parasolid Version 16.1, build 251, 11-23-2005;
APPL=SolidWorks 2006-2006004;
SITE=;
USER=unknown;
FORMAT=text;
GUISE=transmit;
KEY=cylinder;
FILE=cylinder.x_t;
DATE=Wed May 03 11:45:44 2006;
**PART2;
SCH=SCH_1601251_16100;
USFLD_SIZE=0;
**PART3;
**END_OF_HEADER*****************************************************************
T51 : TRANSMIT FILE created by modeller version 160125117 SCH_1300000_130060 12
 1 66 0 2 0 0 0 0 1e3 1e-8 0 3 0 1 0 1 1 4 5 6 0 7 8 0 70 2 0 1 0 0 4 2 20 4 9 9
 1 T13 4 29 0 1 0 10 0 0 11 0 51 5 28 0 10 12 0 0 -0 .1 0 0 -1 0 .05 0 0 -1 31 6
 5 0 8 13 0 0 +0 .1 0 0 1 0 0 0 1 .05 19 7 7 0 1 11 0 14 V16 8 4 0 ?15 0 16 6 0
 0 1 17 15 0 17 15 15 0 18 8 0 0 +16 16 18 0 ?19 8 0 13 0 0 1 17 19 0 20 19 19 0
 21 16 0 0 +31 13 23 0 16 0 6 0 +0 0 0 0 1 0 0 0 1 .05 15 20 26 0 19 10 0 17 21
 0 22 21 21 0 19 16 0 0 -15 22 17 0 21 23 0 14 23 16 24 ?0 25 22 4 26 -0 0 0 25
 14 81 1 24 64 27 23 28 0 0 29 30 14 25 1 29 ?23 10 17 4 12 +0 0 23 10 14 50 26
 22 0 23 0 12 0 +0 0 0 0 1 0 0 0 1 13 14 8 0 0 0 0 0 0 7 10 14 10 25 31 ?25 0 32
 4 5 -0 0 25 0 14 81 1 31 66 27 10 33 0 29 0 34 15 32 24 0 18 10 20 17 18 0 32 1
8 18 0 15 8 0 0 -80 1 27 35 36 9000 1 1 1 1 1 1 1 1 0 FFFFTFTFFFFFFF1 81 1 33 55
 37 10 0 31 0 38 39 81 1 29 65 27 25 38 0 24 31 40 82 1 34 341180697 81 1 38 56
 37 25 0 29 33 28 41 82 1 40 339214617 80 1 37 0 42 8001 0 0 0 0 3 5 0 0 0 FFFFT
FTFFFFFFF2 81 1 28 57 37 23 0 24 38 0 43 83 3 41 .752941176470588 .7529411764705
88 .752941176470588 83 3 43 .752941176470588 .752941176470588 .752941176470588 7
9 15 42 SDL/TYSA_COLOUR83 3 39 .752941176470588 .752941176470588 .75294117647058
8 79 14 36 SWEntUnchanged50 12 2 0 25 26 5 0 +0 .1 0 0 1 0 0 0 1 15 17 3 0 15 25
 0 82 1 30 340656409 19 11 30 0 1 0 7 4 S74 20 9 2 0 31 28 0 0 0 0 0 0 0 0 0 0 0
 0 0 0 0 0 0 0 1 0 
