**ABCDEFGHIJKLMNOPQRSTUVWXYZabcdefghijklmnopqrstuvwxyz**************************
**PARASOLID !"#$%&'()*+,-./:;<=>?@[\]^_`{|}~0123456789**************************
**PART1;
MC=unknown;
MC_MODEL=unknown;
MC_ID=unknown;
OS=unknown;
OS_RELEASE=unknown;
FRU=sdl_parasolid_customer_support;
APPL=parasolid_acceptance_tests;
SITE=unknown;
USER=unknown;
FORMAT=text;
GUISE=transmit;
KEY=/Users/parkerda/SimVascular/DemoProject/Models/parasolid-model;
FILE=/Users/parkerda/SimVascular/DemoProject/Models/parasolid-model.xmt_txt;
DATE=unknown;
**PART2;
SCH=SCH_3000167_30000;
USFLD_SIZE=1;
**PART3;
**END_OF_HEADER*****************************************************************
T51 : TRANSMIT FILE created by modeller version 300016723 SCH_3000167_30000_1300
6205 1 12 33 CCCCCCI4 mesh1006 0 I8 polyline1008 0 CCCCCCCDI5 owner1040 0 CCCCCC
I13 boundary_mesh1006 0 I17 boundary_polyline1008 0 CCCA16 index_map_offset0 0 1
 dA9 index_map82 0 A17 node_id_index_map82 0 A20 schema_embedding_map82 0 A5 chi
ld12 0 A14 lowest_node_id0 0 1 dZ1 63 0 2 0 0 0 0 0 0 1e3 1e-8 0 0 0 1 0 1 1 3 4
 5 0 0 0 6 7 0 0 0 0 0 0 0 0 70 11 CI9 list_type0 0 1 uI10 notransmit0 0 1 lCCCD
CCDI12 finger_index0 0 1 dI12 finger_block1012 0 CZ2 0 4 T1 0 0 1 20 1 8 8 0 13
 255 3 3 0 1 0 9 0 0 10 0 0 51 255 4 18 0 11 12 0 0 +0 0 -1 0 0 1 2 1 0 0 0 31 2
55 5 22 0 13 14 0 0 +0 0 -1 0 0 -1 -1 0 0 1 0 19 8 CCCCCCCA5 owner12 0 Z6 1 0 1
 10 0 15 V0 0 16 255 7 12 0 ?16 0 17 14 0 0 1 0 17 255 16 0 18 16 16 0 19 7 0 0
 +0 16 17 6 0 ?20 7 21 22 0 0 1 0 31 14 16 0 7 22 5 0 +0 0 1 0 0 -1 1 0 0 2 0 31
 22 10 0 17 23 14 0 +0 0 -1 0 0 1 1 0 0 2 0 31 23 51 0 21 0 22 0 +0 0 1 0 0 1 1
 0 0 1 0 16 21 30 0 ?24 17 13 23 0 0 1 0 17 24 0 25 24 24 0 26 21 0 0 +0 16 13 3
2 0 ?27 21 0 5 0 0 1 0 17 27 0 28 27 27 0 29 13 0 0 +0 15 255 28 45 0 27 30 0 0
 17 29 0 31 29 29 0 27 13 0 0 -0 15 31 21 0 29 32 33 0 14 255 32 9 34 ?11 9 31 3
 35 +0 0 11 9 15 0 15 33 8 0 36 32 0 0 17 36 0 33 36 36 0 20 17 0 0 -0 17 20 0 3
7 20 20 0 36 17 0 0 +0 15 37 7 0 20 11 0 0 14 11 2 38 ?30 32 18 3 4 +0 0 30 32 1
5 0 81 255 1 38 62 39 11 0 0 34 40 41 0 14 30 43 40 ?0 11 25 3 42 -0 0 0 11 15 0
 15 18 13 0 16 11 37 0 13 15 4 0 0 0 0 0 0 6 9 0 14 9 15 43 ?32 0 44 3 12 +0 0 3
2 0 15 0 81 1 43 60 39 9 0 0 0 34 45 0 15 44 26 0 26 9 46 0 50 255 12 17 0 9 35
 4 0 +0 0 1 0 0 1 1 0 0 0 50 35 11 0 32 42 12 0 +0 0 -1 0 0 -1 -1 0 0 0 51 42 48
 0 30 0 35 0 +0 0 -2.5 0 0 1 1 1 0 0 0 17 26 0 44 26 26 0 24 21 0 0 -0 15 46 14
 0 19 9 0 0 17 19 0 46 19 19 0 16 7 0 0 -0 80 255 1 39 47 48 9000 0 0 0 0 3 5 0
 0 0 FFFFTFFFFFFFFF3 0 81 1 34 61 39 32 0 0 43 38 49 0 84 255 3 45 top0 84 6 49
 bottom0 79 255 8 48 gdscName0 81 1 40 63 39 30 0 0 38 0 50 0 15 25 44 0 24 30 2
8 0 84 5 50 inner0 84 6 41 outter0 19 10 5 0 1 0 6 3 S0 0 74 4 CI16 index_map_of
fset0 0 1 dCCZ20 8 1 0 0 40 0 0 0 0 0 0 0 0 0 0 0 0 0 0 0 0 0 0 0 0 1 0 
